<svg width="30" height="48" viewBox="0 0 30 48" fill="none" xmlns="http://www.w3.org/2000/svg">
<path d="M9.44229 23.8565L28.8058 41.6284C29.1794 41.9596 29.4774 42.3558 29.6824 42.7938C29.8874 43.2319 29.9953 43.703 29.9999 44.1797C30.0044 44.6564 29.9054 45.1292 29.7087 45.5704C29.512 46.0117 29.2215 46.4125 28.8543 46.7496C28.487 47.0867 28.0502 47.3533 27.5695 47.5338C27.0887 47.7144 26.5736 47.8052 26.0542 47.8011C25.5348 47.7969 25.0215 47.6979 24.5442 47.5097C24.067 47.3216 23.6353 47.048 23.2745 46.7051L1.14533 26.3948C0.411974 25.7215 0 24.8085 0 23.8565C0 22.9045 0.411974 21.9914 1.14533 21.3181L23.2745 1.00784C24.0122 0.353837 25.0004 -0.00804448 26.026 0.000135723C27.0517 0.00831592 28.0328 0.385903 28.7581 1.05157C29.4834 1.71724 29.8948 2.61773 29.9037 3.5591C29.9126 4.50046 29.5183 5.40738 28.8058 6.08452L9.44229 23.8565Z" fill="#7C7C7C"/>
</svg>
