<svg width="50" height="50" viewBox="0 0 50 50" fill="none" xmlns="http://www.w3.org/2000/svg">
<path d="M35.1039 0H14.8936C10.9445 0.00464079 7.15862 1.57561 4.36646 4.36823C1.57431 7.16086 0.00397681 10.947 0 14.8961L0 35.1064C0.00464079 39.0555 1.57561 42.8414 4.36823 45.6335C7.16086 48.4257 10.947 49.996 14.8961 50H35.1064C39.0555 49.9954 42.8414 48.4244 45.6335 45.6318C48.4257 42.8391 49.996 39.053 50 35.1039V14.8936C49.9954 10.9445 48.4244 7.15862 45.6318 4.36646C42.8391 1.57431 39.053 0.00397681 35.1039 0ZM44.9712 35.1039C44.9712 36.3997 44.716 37.6828 44.2201 38.88C43.7242 40.0771 42.9974 41.1649 42.0811 42.0811C41.1649 42.9974 40.0771 43.7242 38.88 44.2201C37.6828 44.716 36.3997 44.9712 35.1039 44.9712H14.8936C12.277 44.9705 9.7679 43.9307 7.91797 42.0803C6.06804 40.2299 5.0288 37.7205 5.0288 35.1039V14.8936C5.02946 12.277 6.06934 9.7679 7.91974 7.91797C9.77014 6.06804 12.2795 5.0288 14.8961 5.0288H35.1064C37.723 5.02946 40.2321 6.06934 42.082 7.91974C43.932 9.77014 44.9712 12.2795 44.9712 14.8961V35.1039Z" fill="white"/>
<path d="M24.9989 12.0684C21.5715 12.0737 18.286 13.4377 15.8627 15.8615C13.4393 18.2853 12.0759 21.5711 12.0713 24.9985C12.0753 28.4268 13.4387 31.7136 15.8627 34.138C18.2866 36.5624 21.5731 37.9265 25.0014 37.9311C28.4301 37.9271 31.7173 36.5633 34.1418 34.1388C36.5663 31.7144 37.9301 28.4272 37.934 24.9985C37.9287 21.5702 36.564 18.2839 34.1391 15.8605C31.7142 13.437 28.4272 12.0742 24.9989 12.0709V12.0684ZM24.9989 32.9023C22.9034 32.9023 20.8936 32.0699 19.4118 30.5881C17.93 29.1063 17.0976 27.0966 17.0976 25.001C17.0976 22.9054 17.93 20.8957 19.4118 19.4139C20.8936 17.9321 22.9034 17.0997 24.9989 17.0997C27.0945 17.0997 29.1042 17.9321 30.586 19.4139C32.0678 20.8957 32.9002 22.9054 32.9002 25.001C32.9002 27.0966 32.0678 29.1063 30.586 30.5881C29.1042 32.0699 27.0945 32.9023 24.9989 32.9023Z" fill="white"/>
<path d="M37.9563 15.2642C39.6673 15.2642 41.0542 13.8772 41.0542 12.1663C41.0542 10.4553 39.6673 9.06836 37.9563 9.06836C36.2454 9.06836 34.8584 10.4553 34.8584 12.1663C34.8584 13.8772 36.2454 15.2642 37.9563 15.2642Z" fill="white"/>
</svg>
