<svg width="30" height="48" viewBox="0 0 30 48" fill="none" xmlns="http://www.w3.org/2000/svg">
<path d="M20.5274 23.9332L1.10162 6.10408C0.386764 5.42476 -0.00879306 4.51493 0.000148352 3.57054C0.00908976 2.62615 0.421814 1.72276 1.14943 1.05495C1.87704 0.387144 2.86133 0.00834266 3.89029 0.000136159C4.91925 -0.00807034 5.91056 0.354975 6.65071 1.01108L28.851 21.3867C29.5867 22.0621 30 22.9781 30 23.9332C30 24.8883 29.5867 25.8042 28.851 26.4797L6.65071 46.8553C5.91056 47.5114 4.91925 47.8744 3.89029 47.8662C2.86133 47.858 1.87704 47.4792 1.14943 46.8114C0.421814 46.1436 0.00908976 45.2402 0.000148352 44.2958C-0.00879306 43.3514 0.386764 42.4416 1.10162 41.7623L20.5274 23.9332Z" fill="#7C7C7C"/>
</svg>
