<svg width="53" height="53" viewBox="0 0 53 53" fill="none" xmlns="http://www.w3.org/2000/svg">
<g opacity="0.8">
<path d="M23.0418 18.383V22.0321H20.3706V26.4921H23.0418V39.75H28.5326V26.4921H32.2161C32.2161 26.4921 32.5633 24.3535 32.7302 22.0136H28.5538V18.9661C28.5538 18.5076 29.1527 17.8954 29.7463 17.8954H32.7355V13.25H28.6678C22.9067 13.25 23.0418 17.7152 23.0418 18.383Z" fill="white"/>
<path d="M26.5 47.7C32.1226 47.7 37.5149 45.4664 41.4907 41.4907C45.4664 37.5149 47.7 32.1226 47.7 26.5C47.7 20.8774 45.4664 15.4851 41.4907 11.5093C37.5149 7.53357 32.1226 5.3 26.5 5.3C20.8774 5.3 15.4851 7.53357 11.5093 11.5093C7.53357 15.4851 5.3 20.8774 5.3 26.5C5.3 32.1226 7.53357 37.5149 11.5093 41.4907C15.4851 45.4664 20.8774 47.7 26.5 47.7ZM26.5 53C11.8641 53 0 41.136 0 26.5C0 11.8641 11.8641 0 26.5 0C41.136 0 53 11.8641 53 26.5C53 41.136 41.136 53 26.5 53Z" fill="white"/>
</g>
</svg>
