<svg width="50" height="50" viewBox="0 0 50 50" fill="none" xmlns="http://www.w3.org/2000/svg">
<path d="M35.1039 0H14.8936C10.9445 0.00464079 7.15862 1.57561 4.36646 4.36823C1.57431 7.16086 0.00397681 10.947 0 14.8961L0 35.1064C0.00464079 39.0555 1.57561 42.8414 4.36823 45.6335C7.16086 48.4257 10.947 49.996 14.8961 50H35.1064C39.0555 49.9954 42.8414 48.4244 45.6335 45.6318C48.4257 42.8391 49.996 39.053 50 35.1039V14.8936C49.9954 10.9445 48.4244 7.15862 45.6318 4.36646C42.8391 1.57431 39.053 0.00397681 35.1039 0ZM44.9712 35.1039C44.9712 36.3997 44.716 37.6828 44.2201 38.88C43.7242 40.0771 42.9974 41.1649 42.0811 42.0811C41.1649 42.9974 40.0771 43.7242 38.88 44.2201C37.6828 44.716 36.3997 44.9712 35.1039 44.9712H14.8936C12.277 44.9705 9.7679 43.9307 7.91797 42.0803C6.06804 40.2299 5.0288 37.7205 5.0288 35.1039V14.8936C5.02946 12.277 6.06934 9.7679 7.91974 7.91797C9.77014 6.06804 12.2795 5.0288 14.8961 5.0288H35.1064C37.723 5.02946 40.2321 6.06934 42.082 7.91974C43.932 9.77014 44.9712 12.2795 44.9712 14.8961V35.1039Z" fill="white"/>
<path d="M24.9988 12.0684C21.5714 12.0737 18.2859 13.4377 15.8625 15.8615C13.4392 18.2853 12.0758 21.5711 12.0712 24.9985C12.0751 28.4268 13.4386 31.7136 15.8626 34.138C18.2865 36.5624 21.573 37.9265 25.0013 37.9311C28.43 37.9271 31.7172 36.5633 34.1417 34.1388C36.5661 31.7144 37.93 28.4272 37.9339 24.9985C37.9286 21.5702 36.5639 18.2839 34.139 15.8605C31.7141 13.437 28.4271 12.0742 24.9988 12.0709V12.0684ZM24.9988 32.9023C22.9032 32.9023 20.8935 32.0699 19.4117 30.5881C17.9299 29.1063 17.0975 27.0966 17.0975 25.001C17.0975 22.9054 17.9299 20.8957 19.4117 19.4139C20.8935 17.9321 22.9032 17.0997 24.9988 17.0997C27.0944 17.0997 29.1041 17.9321 30.5859 19.4139C32.0677 20.8957 32.9001 22.9054 32.9001 25.001C32.9001 27.0966 32.0677 29.1063 30.5859 30.5881C29.1041 32.0699 27.0944 32.9023 24.9988 32.9023Z" fill="white"/>
<path d="M37.9564 15.2642C39.6674 15.2642 41.0544 13.8772 41.0544 12.1663C41.0544 10.4553 39.6674 9.06836 37.9564 9.06836C36.2455 9.06836 34.8585 10.4553 34.8585 12.1663C34.8585 13.8772 36.2455 15.2642 37.9564 15.2642Z" fill="white"/>
</svg>
