<svg width="50" height="50" viewBox="0 0 50 50" fill="none" xmlns="http://www.w3.org/2000/svg">
<path d="M35.1039 0H14.8936C10.9445 0.00464079 7.15862 1.57561 4.36646 4.36823C1.57431 7.16086 0.00397681 10.947 0 14.8961L0 35.1064C0.00464079 39.0555 1.57561 42.8414 4.36823 45.6335C7.16086 48.4257 10.947 49.996 14.8961 50H35.1064C39.0555 49.9954 42.8414 48.4244 45.6335 45.6318C48.4257 42.8391 49.996 39.053 50 35.1039V14.8936C49.9954 10.9445 48.4244 7.15862 45.6318 4.36646C42.8391 1.57431 39.053 0.00397681 35.1039 0ZM44.9712 35.1039C44.9712 36.3997 44.716 37.6828 44.2201 38.88C43.7242 40.0771 42.9974 41.1649 42.0811 42.0811C41.1649 42.9974 40.0771 43.7242 38.88 44.2201C37.6828 44.716 36.3997 44.9712 35.1039 44.9712H14.8936C12.277 44.9705 9.7679 43.9307 7.91797 42.0803C6.06804 40.2299 5.0288 37.7205 5.0288 35.1039V14.8936C5.02946 12.277 6.06934 9.7679 7.91974 7.91797C9.77014 6.06804 12.2795 5.0288 14.8961 5.0288H35.1064C37.723 5.02946 40.2321 6.06934 42.082 7.91974C43.932 9.77014 44.9712 12.2795 44.9712 14.8961V35.1039Z" fill="white"/>
<path d="M24.9987 12.0684C21.5712 12.0737 18.2858 13.4377 15.8624 15.8615C13.4391 18.2853 12.0757 21.5711 12.071 24.9985C12.075 28.4268 13.4385 31.7136 15.8624 34.138C18.2864 36.5624 21.5729 37.9265 25.0012 37.9311C28.4299 37.9271 31.7171 36.5633 34.1415 34.1388C36.566 31.7144 37.9298 28.4272 37.9338 24.9985C37.9285 21.5702 36.5638 18.2839 34.1389 15.8605C31.714 13.437 28.427 12.0742 24.9987 12.0709V12.0684ZM24.9987 32.9023C22.9031 32.9023 20.8934 32.0699 19.4116 30.5881C17.9298 29.1063 17.0973 27.0966 17.0973 25.001C17.0973 22.9054 17.9298 20.8957 19.4116 19.4139C20.8934 17.9321 22.9031 17.0997 24.9987 17.0997C27.0942 17.0997 29.104 17.9321 30.5858 19.4139C32.0675 20.8957 32.9 22.9054 32.9 25.001C32.9 27.0966 32.0675 29.1063 30.5858 30.5881C29.104 32.0699 27.0942 32.9023 24.9987 32.9023Z" fill="white"/>
<path d="M37.9566 15.2642C39.6675 15.2642 41.0545 13.8772 41.0545 12.1663C41.0545 10.4553 39.6675 9.06836 37.9566 9.06836C36.2456 9.06836 34.8586 10.4553 34.8586 12.1663C34.8586 13.8772 36.2456 15.2642 37.9566 15.2642Z" fill="white"/>
</svg>
