<svg width="294" height="101" viewBox="0 0 294 101" fill="none" xmlns="http://www.w3.org/2000/svg">
<g filter="url(#filter0_d_42_57)">
<path d="M0 43C0 19.2518 19.2518 0 43 0H236C259.748 0 279 19.2518 279 43C279 66.7482 259.748 86 236 86H43C19.2518 86 0 66.7482 0 43Z" fill="#FF0113"/>
<path d="M0.5 43C0.5 19.5279 19.5279 0.5 43 0.5H236C259.472 0.5 278.5 19.5279 278.5 43C278.5 66.4721 259.472 85.5 236 85.5H43C19.5279 85.5 0.5 66.4721 0.5 43Z" stroke="black"/>
</g>
<defs>
<filter id="filter0_d_42_57" x="0" y="0" width="294" height="101" filterUnits="userSpaceOnUse" color-interpolation-filters="sRGB">
<feFlood flood-opacity="0" result="BackgroundImageFix"/>
<feColorMatrix in="SourceAlpha" type="matrix" values="0 0 0 0 0 0 0 0 0 0 0 0 0 0 0 0 0 0 127 0" result="hardAlpha"/>
<feOffset dx="15" dy="15"/>
<feComposite in2="hardAlpha" operator="out"/>
<feColorMatrix type="matrix" values="0 0 0 0 0 0 0 0 0 0 0 0 0 0 0 0 0 0 0.25 0"/>
<feBlend mode="normal" in2="BackgroundImageFix" result="effect1_dropShadow_42_57"/>
<feBlend mode="normal" in="SourceGraphic" in2="effect1_dropShadow_42_57" result="shape"/>
</filter>
</defs>
</svg>
