<svg width="48" height="50" viewBox="0 0 48 50" fill="none" xmlns="http://www.w3.org/2000/svg">
<path d="M40.6922 5.55556C42.5967 5.55556 44.4232 6.43353 45.7699 7.99633C47.1166 9.55914 47.8731 11.6788 47.8731 13.8889V41.6667C47.8731 43.8768 47.1166 45.9964 45.7699 47.5592C44.4232 49.122 42.5967 50 40.6922 50H7.18097C5.27646 50 3.44995 49.122 2.10326 47.5592C0.756564 45.9964 0 43.8768 0 41.6667L0 13.8889C0 11.6788 0.756564 9.55914 2.10326 7.99633C3.44995 6.43353 5.27646 5.55556 7.18097 5.55556V11.1111C7.18097 12.5845 7.68535 13.9976 8.58314 15.0395C9.48094 16.0814 10.6986 16.6667 11.9683 16.6667C13.238 16.6667 14.4556 16.0814 15.3534 15.0395C16.2512 13.9976 16.7556 12.5845 16.7556 11.1111V5.55556H19.1493V11.1111C19.1493 12.5845 19.6536 13.9976 20.5514 15.0395C21.4492 16.0814 22.6669 16.6667 23.9366 16.6667C25.2062 16.6667 26.4239 16.0814 27.3217 15.0395C28.2195 13.9976 28.7239 12.5845 28.7239 11.1111V5.55556H31.1175V11.1111C31.1175 12.5845 31.6219 13.9976 32.5197 15.0395C33.4175 16.0814 34.6352 16.6667 35.9049 16.6667C37.1745 16.6667 38.3922 16.0814 39.29 15.0395C40.1878 13.9976 40.6922 12.5845 40.6922 11.1111V5.55556ZM7.18097 22.2222V27.7778H11.9683V22.2222H7.18097ZM7.18097 33.3333V38.8889H11.9683V33.3333H7.18097ZM35.9049 33.3333V38.8889H40.6922V33.3333H35.9049ZM35.9049 22.2222V27.7778H40.6922V22.2222H35.9049ZM16.7556 22.2222V27.7778H21.5429V22.2222H16.7556ZM26.3302 22.2222V27.7778H31.1175V22.2222H26.3302ZM26.3302 33.3333V38.8889H31.1175V33.3333H26.3302ZM16.7556 33.3333V38.8889H21.5429V33.3333H16.7556ZM11.9683 0C12.6031 0 13.212 0.292658 13.6609 0.813592C14.1098 1.33453 14.3619 2.04107 14.3619 2.77778V11.1111C14.3619 11.8478 14.1098 12.5544 13.6609 13.0753C13.212 13.5962 12.6031 13.8889 11.9683 13.8889C11.3334 13.8889 10.7246 13.5962 10.2757 13.0753C9.82682 12.5544 9.57463 11.8478 9.57463 11.1111V2.77778C9.57463 2.04107 9.82682 1.33453 10.2757 0.813592C10.7246 0.292658 11.3334 0 11.9683 0ZM35.9049 0C36.5397 0 37.1485 0.292658 37.5974 0.813592C38.0463 1.33453 38.2985 2.04107 38.2985 2.77778V11.1111C38.2985 11.8478 38.0463 12.5544 37.5974 13.0753C37.1485 13.5962 36.5397 13.8889 35.9049 13.8889C35.27 13.8889 34.6612 13.5962 34.2123 13.0753C33.7634 12.5544 33.5112 11.8478 33.5112 11.1111V2.77778C33.5112 2.04107 33.7634 1.33453 34.2123 0.813592C34.6612 0.292658 35.27 0 35.9049 0ZM23.9366 0C24.5714 0 25.1802 0.292658 25.6291 0.813592C26.078 1.33453 26.3302 2.04107 26.3302 2.77778V11.1111C26.3302 11.8478 26.078 12.5544 25.6291 13.0753C25.1802 13.5962 24.5714 13.8889 23.9366 13.8889C23.3017 13.8889 22.6929 13.5962 22.244 13.0753C21.7951 12.5544 21.5429 11.8478 21.5429 11.1111V2.77778C21.5429 2.04107 21.7951 1.33453 22.244 0.813592C22.6929 0.292658 23.3017 0 23.9366 0Z" fill="#AEE301"/>
</svg>
