<svg width="112" height="117" viewBox="0 0 112 117" fill="none" xmlns="http://www.w3.org/2000/svg">
<path d="M94.4444 12.8942C98.8647 12.8942 103.104 14.9319 106.23 18.5591C109.355 22.1863 111.111 27.1058 111.111 32.2354V96.7062C111.111 101.836 109.355 106.755 106.23 110.383C103.104 114.01 98.8647 116.047 94.4444 116.047H16.6667C12.2464 116.047 8.00716 114.01 4.88155 110.383C1.75595 106.755 0 101.836 0 96.7062L0 32.2354C0 27.1058 1.75595 22.1863 4.88155 18.5591C8.00716 14.9319 12.2464 12.8942 16.6667 12.8942V25.7883C16.6667 29.2081 17.8373 32.4877 19.921 34.9059C22.0048 37.324 24.8309 38.6825 27.7778 38.6825C30.7246 38.6825 33.5508 37.324 35.6345 34.9059C37.7183 32.4877 38.8889 29.2081 38.8889 25.7883V12.8942H44.4444V25.7883C44.4444 29.2081 45.6151 32.4877 47.6988 34.9059C49.7826 37.324 52.6087 38.6825 55.5556 38.6825C58.5024 38.6825 61.3286 37.324 63.4123 34.9059C65.496 32.4877 66.6667 29.2081 66.6667 25.7883V12.8942H72.2222V25.7883C72.2222 29.2081 73.3929 32.4877 75.4766 34.9059C77.5603 37.324 80.3865 38.6825 83.3333 38.6825C86.2802 38.6825 89.1063 37.324 91.1901 34.9059C93.2738 32.4877 94.4444 29.2081 94.4444 25.7883V12.8942ZM16.6667 51.5766V64.4708H27.7778V51.5766H16.6667ZM16.6667 77.365V90.2591H27.7778V77.365H16.6667ZM83.3333 77.365V90.2591H94.4444V77.365H83.3333ZM83.3333 51.5766V64.4708H94.4444V51.5766H83.3333ZM38.8889 51.5766V64.4708H50V51.5766H38.8889ZM61.1111 51.5766V64.4708H72.2222V51.5766H61.1111ZM61.1111 77.365V90.2591H72.2222V77.365H61.1111ZM38.8889 77.365V90.2591H50V77.365H38.8889ZM27.7778 0C29.2512 0 30.6643 0.679244 31.7061 1.88831C32.748 3.09737 33.3333 4.73721 33.3333 6.44708V25.7883C33.3333 27.4982 32.748 29.138 31.7061 30.3471C30.6643 31.5562 29.2512 32.2354 27.7778 32.2354C26.3044 32.2354 24.8913 31.5562 23.8494 30.3471C22.8075 29.138 22.2222 27.4982 22.2222 25.7883V6.44708C22.2222 4.73721 22.8075 3.09737 23.8494 1.88831C24.8913 0.679244 26.3044 0 27.7778 0ZM83.3333 0C84.8068 0 86.2198 0.679244 87.2617 1.88831C88.3036 3.09737 88.8889 4.73721 88.8889 6.44708V25.7883C88.8889 27.4982 88.3036 29.138 87.2617 30.3471C86.2198 31.5562 84.8068 32.2354 83.3333 32.2354C81.8599 32.2354 80.4468 31.5562 79.405 30.3471C78.3631 29.138 77.7778 27.4982 77.7778 25.7883V6.44708C77.7778 4.73721 78.3631 3.09737 79.405 1.88831C80.4468 0.679244 81.8599 0 83.3333 0ZM55.5556 0C57.029 0 58.4421 0.679244 59.4839 1.88831C60.5258 3.09737 61.1111 4.73721 61.1111 6.44708V25.7883C61.1111 27.4982 60.5258 29.138 59.4839 30.3471C58.4421 31.5562 57.029 32.2354 55.5556 32.2354C54.0821 32.2354 52.6691 31.5562 51.6272 30.3471C50.5853 29.138 50 27.4982 50 25.7883V6.44708C50 4.73721 50.5853 3.09737 51.6272 1.88831C52.6691 0.679244 54.0821 0 55.5556 0Z" fill="#AEE301"/>
</svg>
